# 3ds Max Wavefront OBJ Exporter v0.97b - (c)2007 guruware
# File Created: 22.02.2018 11:18:11

mtllib 1 door down.mtl

#
# object Plane009
#

v  -636.0137 0.0000 -319.8551
v  -646.4566 0.0000 -375.8853
v  -722.4431 0.0000 -379.5405
v  -722.4431 0.0000 -319.8551
v  -646.4566 0.0000 -413.2386
v  -722.4431 0.0000 -409.5834
v  -636.0137 0.0000 -469.2688
v  -722.4431 0.0000 -469.2688
v  -722.4431 31.7127 -379.5405
v  -722.4431 31.7127 -319.8551
v  -606.2418 0.0000 -319.8551
v  -606.2418 31.7127 -319.8551
v  -519.8124 31.7127 -319.8551
v  -519.8124 0.0000 -319.8551
v  -636.0137 31.7127 -469.2688
v  -722.4431 31.7127 -469.2688
v  -519.8124 0.0000 -409.5834
v  -519.8124 31.7127 -409.5834
v  -519.8124 31.7127 -469.2688
v  -519.8124 0.0000 -469.2688
v  -722.4431 57.2476 -319.8551
v  -722.4431 57.2476 -375.8853
v  -742.0476 57.2476 -372.2713
v  -742.0476 57.2476 -305.3994
v  -519.8124 57.2476 -319.8551
v  -595.7989 57.2476 -319.8551
v  -590.8978 57.2476 -305.3994
v  -500.2079 57.2476 -305.3994
v  -722.4431 57.2476 -469.2688
v  -646.4566 57.2476 -469.2688
v  -651.3577 57.2476 -483.7245
v  -742.0476 57.2476 -483.7245
v  -519.8124 57.2476 -469.2688
v  -519.8124 57.2476 -413.2386
v  -500.2079 57.2476 -416.8526
v  -500.2079 57.2476 -483.7245
v  -519.8124 0.0000 -379.5405
v  -595.7989 0.0000 -375.8853
v  -606.2418 31.7127 -469.2688
v  -606.2418 0.0000 -469.2688
v  -646.4566 57.2476 -319.8551
v  -651.3577 57.2476 -305.3994
v  -595.7989 57.2476 -469.2688
v  -590.8978 57.2476 -483.7245
v  -636.0137 31.7127 -319.8551
v  -722.4431 31.7127 -409.5834
v  -722.4431 57.2476 -413.2386
v  -742.0476 57.2476 -416.8526
v  -519.8124 57.2476 -375.8853
v  -500.2079 57.2476 -372.2713
v  -595.7989 0.0000 -413.2386
v  -519.8124 31.7127 -379.5405
v  -636.0156 -0.0615 -305.3756
v  -606.2399 -0.0615 -305.3756
v  -606.2398 31.6834 -305.3756
v  -636.0137 31.7127 -305.3519
v  -621.1277 31.6834 -305.3756
v  -742.3087 31.6834 -379.5629
v  -742.0476 31.6542 -305.3994
v  -636.0176 31.6542 -305.3994
v  -500.2079 31.6542 -305.3994
v  -742.3087 31.6834 -409.5610
v  -500.2995 31.6834 -379.5629
v  -742.0476 31.6542 -483.7245
v  -500.2995 31.6834 -409.5610
v  -636.0157 31.6834 -483.7097
v  -606.2398 31.6834 -483.7097
v  -500.2079 31.6542 -483.7245
v  -742.3087 -0.0615 -379.5629
v  -742.0476 -0.1230 -305.3994
v  -500.2079 -0.1230 -305.3994
v  -500.2995 -0.0615 -379.5629
v  -742.0476 -0.1230 -483.7245
v  -742.3087 -0.0615 -409.5610
v  -636.0156 -0.0615 -483.7097
v  -500.2079 -0.1230 -483.7245
v  -606.2399 -0.0615 -483.7097
v  -500.2995 -0.0615 -409.5610
# 78 vertices

vn 0.0000 1.0000 -0.0000
vn 1.0000 0.0000 -0.0000
vn 0.0000 0.0000 -1.0000
vn 0.0000 0.0000 1.0000
vn -1.0000 0.0000 -0.0000
vn 0.0000 1.0000 0.0042
vn -1.0000 0.0000 0.0003
vn 1.0000 -0.0000 -0.0000
vn -0.0005 -1.0000 -0.0015
vn -1.0000 0.0048 0.0021
vn -1.0000 0.0048 0.0019
vn -1.0000 0.0049 0.0019
vn -0.0003 0.0006 1.0000
vn -0.0003 0.0005 1.0000
vn 0.0000 0.0005 1.0000
vn 0.0001 0.0005 1.0000
vn 0.0002 0.0004 1.0000
vn 0.0000 0.0004 1.0000
vn -0.9999 0.0104 -0.0000
vn -0.9999 0.0102 -0.0000
vn 1.0000 -0.0017 -0.0006
vn -1.0000 0.0048 -0.0019
vn -1.0000 0.0048 -0.0021
vn -1.0000 0.0049 -0.0018
vn 1.0000 -0.0036 -0.0000
vn 0.0000 -0.0002 -1.0000
vn 0.0001 -0.0002 -1.0000
vn 0.0001 -0.0003 -1.0000
vn 0.0000 -0.0003 -1.0000
vn 0.0000 -0.0006 -1.0000
vn -0.0001 -0.0002 -1.0000
vn -0.0001 -0.0003 -1.0000
vn 1.0000 -0.0017 0.0006
vn 1.0000 -0.0017 0.0007
vn -1.0000 0.0000 0.0035
vn -1.0000 0.0000 0.0036
vn -0.0001 0.0004 1.0000
vn 0.0003 0.0000 1.0000
vn 0.0002 0.0000 1.0000
vn 1.0000 0.0000 -0.0012
vn 1.0000 0.0000 -0.0009
vn -1.0000 0.0000 -0.0036
vn -1.0000 0.0000 -0.0035
vn 0.0002 0.0000 -1.0000
vn -0.0002 0.0000 -1.0000
vn 1.0000 0.0000 0.0012
vn 1.0000 0.0000 0.0009
# 47 vertex normals

vt 0.2089 0.0241 0.0000
vt 0.1877 0.1376 0.0000
vt 0.0338 0.1450 0.0000
vt 0.0338 0.0241 0.0000
vt 0.1877 0.2132 0.0000
vt 0.0338 0.2058 0.0000
vt 0.2089 0.3267 0.0000
vt 0.0338 0.3267 0.0000
vt 0.7270 0.3677 0.0000
vt 0.7270 0.4411 0.0000
vt 0.5889 0.4411 0.0000
vt 0.5889 0.3677 0.0000
vt 0.3450 0.9951 0.0000
vt 0.3450 0.9217 0.0000
vt 0.5451 0.9217 0.0000
vt 0.5451 0.9951 0.0000
vt 0.9373 0.3072 0.0000
vt 0.7602 0.3072 0.0000
vt 0.7602 0.2423 0.0000
vt 0.9373 0.2423 0.0000
vt 0.3228 0.6828 0.0000
vt 0.3228 0.6094 0.0000
vt 0.4610 0.6094 0.0000
vt 0.4610 0.6828 0.0000
vt 0.5889 0.5002 0.0000
vt 0.7186 0.5002 0.0000
vt 0.7102 0.5456 0.0000
vt 0.5554 0.5456 0.0000
vt 0.5451 0.8626 0.0000
vt 0.3692 0.8626 0.0000
vt 0.3805 0.8291 0.0000
vt 0.5904 0.8291 0.0000
vt 0.9372 0.1899 0.0000
vt 0.7816 0.1899 0.0000
vt 0.7916 0.1603 0.0000
vt 0.9774 0.1603 0.0000
vt 0.4610 0.5503 0.0000
vt 0.3313 0.5503 0.0000
vt 0.3396 0.5049 0.0000
vt 0.4944 0.5049 0.0000
vt 0.2692 0.0241 0.0000
vt 0.4442 0.0241 0.0000
vt 0.4442 0.1450 0.0000
vt 0.2903 0.1376 0.0000
vt 0.5221 0.3073 0.0000
vt 0.5221 0.2423 0.0000
vt 0.6992 0.2423 0.0000
vt 0.6992 0.3072 0.0000
vt 0.2519 0.8626 0.0000
vt 0.2405 0.8292 0.0000
vt 0.6778 0.1900 0.0000
vt 0.5221 0.1900 0.0000
vt 0.4819 0.1604 0.0000
vt 0.6677 0.1603 0.0000
vt 0.0760 0.9951 0.0000
vt 0.0760 0.9217 0.0000
vt 0.2761 0.9217 0.0000
vt 0.2761 0.9951 0.0000
vt 0.0760 0.8626 0.0000
vt 0.0306 0.8292 0.0000
vt 0.9348 0.3677 0.0000
vt 0.9348 0.4411 0.0000
vt 0.7966 0.4411 0.0000
vt 0.7966 0.3677 0.0000
vt 0.8051 0.5002 0.0000
vt 0.9348 0.5002 0.0000
vt 0.9682 0.5456 0.0000
vt 0.8134 0.5456 0.0000
vt 0.2448 0.5503 0.0000
vt 0.2364 0.5049 0.0000
vt 0.4442 0.3267 0.0000
vt 0.2692 0.3267 0.0000
vt 0.2903 0.2132 0.0000
vt 0.4442 0.2058 0.0000
vt 0.1151 0.6828 0.0000
vt 0.1151 0.6094 0.0000
vt 0.2533 0.6094 0.0000
vt 0.2533 0.6828 0.0000
vt 0.1151 0.5503 0.0000
vt 0.0816 0.5049 0.0000
vt 0.9077 0.9226 0.0000
vt 0.8387 0.9225 0.0000
vt 0.8388 0.8890 0.0000
vt 0.9077 0.8891 0.0000
vt 0.6963 0.9226 0.0000
vt 0.6229 0.9223 0.0000
vt 0.6229 0.8888 0.0000
vt 0.6964 0.8890 0.0000
vt 0.7653 0.9226 0.0000
vt 0.7652 0.8890 0.0000
vt 0.7308 0.8890 0.0000
vt 0.7271 0.6048 0.0000
vt 0.5554 0.6049 0.0000
vt 0.0306 0.7699 0.0000
vt 0.2760 0.7699 0.0000
vt 0.3105 0.7699 0.0000
vt 0.3450 0.7700 0.0000
vt 0.5904 0.7699 0.0000
vt 0.7966 0.6048 0.0000
vt 0.0816 0.4457 0.0000
vt 0.2533 0.4457 0.0000
vt 0.9683 0.6048 0.0000
vt 0.3227 0.4457 0.0000
vt 0.7602 0.1080 0.0000
vt 0.9774 0.1079 0.0000
vt 0.6992 0.1080 0.0000
vt 0.4819 0.1079 0.0000
vt 0.4944 0.4456 0.0000
vt 0.7271 0.6783 0.0000
vt 0.5554 0.6784 0.0000
vt 0.0306 0.6964 0.0000
vt 0.2760 0.6965 0.0000
vt 0.3450 0.6965 0.0000
vt 0.5904 0.6963 0.0000
vt 0.0816 0.3721 0.0000
vt 0.2533 0.3722 0.0000
vt 0.9683 0.6784 0.0000
vt 0.7966 0.6783 0.0000
vt 0.7602 0.0429 0.0000
vt 0.9774 0.0428 0.0000
vt 0.4819 0.0428 0.0000
vt 0.6992 0.0429 0.0000
vt 0.3227 0.3722 0.0000
vt 0.4944 0.3721 0.0000
# 124 texture coords

g Plane009
usemtl Material__2
s off
f 1/1/1 2/2/1 3/3/1 4/4/1 
f 3/3/1 2/2/1 5/5/1 6/6/1 
f 6/6/1 5/5/1 7/7/1 8/8/1 
f 3/9/2 9/10/2 10/11/2 4/12/2 
f 11/13/3 12/14/3 13/15/3 14/16/3 
f 8/17/4 7/18/4 15/19/4 16/20/4 
f 17/21/5 18/22/5 19/23/5 20/24/5 
f 21/25/1 22/26/1 23/27/1 24/28/1 
f 25/29/1 26/30/1 27/31/1 28/32/1 
f 29/33/1 30/34/1 31/35/1 32/36/1 
f 33/37/1 34/38/1 35/39/1 36/40/1 
f 11/41/1 14/42/1 37/43/1 38/44/1 
f 20/45/4 19/46/4 39/47/4 40/48/4 
f 26/30/1 41/49/1 42/50/1 27/31/1 
f 43/51/1 33/52/1 36/53/1 44/54/1 
f 11/41/1 38/44/1 2/2/1 1/1/1 
f 4/55/3 10/56/3 45/57/3 1/58/3 
f 41/49/1 21/59/1 24/60/1 42/50/1 
f 30/34/1 43/51/1 44/54/1 31/35/1 
f 8/61/2 16/62/2 46/63/2 6/64/2 
f 47/65/1 29/66/1 32/67/1 48/68/1 
f 34/38/1 49/69/1 50/70/1 35/39/1 
f 20/71/1 40/72/1 51/73/1 17/74/1 
f 40/72/1 7/7/1 5/5/1 51/73/1 
f 14/75/5 13/76/5 52/77/5 37/78/5 
f 22/26/1 47/65/1 48/68/1 23/27/1 
f 49/69/1 25/79/1 28/80/1 50/70/1 
f 17/74/1 51/73/1 38/44/1 37/43/1 
f 51/73/1 5/5/1 2/2/1 38/44/1 
f 9/10/2 22/26/2 21/25/2 10/11/2 
f 26/30/3 25/29/3 13/15/3 12/14/3 
f 15/19/4 30/34/4 29/33/4 16/20/4 
f 34/38/5 33/37/5 19/23/5 18/22/5 
f 41/49/3 26/30/3 12/14/3 45/57/3 
f 33/52/4 43/51/4 39/47/4 19/46/4 
f 21/59/3 41/49/3 45/57/3 10/56/3 
f 43/51/4 30/34/4 15/19/4 39/47/4 
f 29/66/2 47/65/2 46/63/2 16/62/2 
f 49/69/5 34/38/5 18/22/5 52/77/5 
f 47/65/2 22/26/2 9/10/2 46/63/2 
f 25/79/5 49/69/5 52/77/5 13/76/5 
f 11/81/6 1/82/6 53/83/6 54/84/6 
f 12/85/7 11/86/7 54/87/5 55/88/5 
f 1/82/8 45/89/2 56/90/2 53/83/8 
f 57/91/9 56/90/9 45/89/9 12/85/9 
f 57/91/9 12/85/9 55/88/9 
f 24/28/10 23/27/11 58/92/12 59/93/10 
f 24/60/4 59/94/4 60/95/4 42/50/4 
f 57/96/13 55/97/13 27/31/13 42/50/13 
f 57/96/13 42/50/13 60/95/14 
f 28/32/15 27/31/16 55/97/17 61/98/18 
f 48/68/19 62/99/20 58/92/20 23/27/19 
f 28/80/21 61/100/21 63/101/21 50/70/21 
f 48/68/22 32/67/23 64/102/23 62/99/24 
f 50/70/25 63/101/25 65/103/25 35/39/25 
f 32/36/26 31/35/27 66/104/28 64/105/29 
f 31/35/30 44/54/30 67/106/30 66/104/30 
f 44/54/31 36/53/26 68/107/29 67/106/32 
f 36/40/33 35/39/33 65/103/34 68/108/33 
f 58/92/35 69/109/35 70/110/36 59/93/36 
f 60/95/37 59/94/18 70/111/18 53/112/37 
f 55/97/38 54/113/39 71/114/38 61/98/38 
f 63/101/40 61/100/41 71/115/41 72/116/40 
f 64/102/42 73/117/42 74/118/43 62/99/43 
f 66/104/44 75/119/44 73/120/3 64/105/3 
f 68/107/3 76/121/3 77/122/45 67/106/45 
f 65/103/46 78/123/46 76/124/47 68/108/47 
f 18/22/5 17/21/5 37/78/5 52/77/5 
f 7/18/4 40/48/4 39/47/4 15/19/4 
f 72/116/2 78/123/2 65/103/2 63/101/2 
f 66/104/3 67/106/3 77/122/3 75/119/3 
f 3/9/2 6/64/2 46/63/2 9/10/2 
f 58/92/5 62/99/5 74/118/5 69/109/5 
# 71 polygons - 2 triangles

