# 3ds Max Wavefront OBJ Exporter v0.97b - (c)2007 guruware
# File Created: 22.02.2018 12:06:25

mtllib 1 door right.mtl

#
# object Plane008
#

v  -357.6800 0.0000 -318.3097
v  -368.1229 0.0000 -374.3398
v  -444.1094 0.0000 -377.9951
v  -444.1094 0.0000 -318.3097
v  -368.1229 0.0000 -411.6932
v  -444.1094 0.0000 -408.0380
v  -357.6800 0.0000 -467.7234
v  -444.1094 0.0000 -467.7234
v  -444.1094 31.7127 -377.9951
v  -444.1094 31.7127 -318.3097
v  -327.9081 0.0000 -318.3097
v  -327.9081 31.7127 -318.3097
v  -241.4787 31.7127 -318.3097
v  -241.4787 0.0000 -318.3097
v  -357.6800 31.7127 -467.7234
v  -444.1094 31.7127 -467.7234
v  -241.4787 0.0000 -408.0380
v  -241.4787 31.7127 -408.0380
v  -241.4787 31.7127 -467.7234
v  -241.4787 0.0000 -467.7234
v  -444.1094 57.2476 -318.3097
v  -444.1094 57.2476 -374.3398
v  -463.7139 57.2476 -370.7259
v  -463.7139 57.2476 -303.8539
v  -241.4787 57.2476 -318.3097
v  -317.4652 57.2476 -318.3097
v  -312.5641 57.2476 -303.8539
v  -221.8742 57.2476 -303.8539
v  -444.1094 57.2476 -467.7234
v  -368.1229 57.2476 -467.7234
v  -373.0240 57.2476 -482.1791
v  -463.7139 57.2476 -482.1791
v  -241.4787 57.2476 -467.7234
v  -241.4787 57.2476 -411.6932
v  -221.8742 57.2476 -415.3072
v  -221.8742 57.2476 -482.1791
v  -241.4787 0.0000 -377.9951
v  -317.4652 0.0000 -374.3398
v  -327.9081 31.7127 -467.7234
v  -327.9081 0.0000 -467.7234
v  -368.1229 57.2476 -318.3097
v  -373.0240 57.2476 -303.8539
v  -317.4652 57.2476 -467.7234
v  -312.5641 57.2476 -482.1791
v  -357.6800 31.7127 -318.3097
v  -444.1094 31.7127 -408.0380
v  -444.1094 57.2476 -411.6932
v  -463.7139 57.2476 -415.3072
v  -241.4787 57.2476 -374.3398
v  -221.8742 57.2476 -370.7259
v  -317.4652 0.0000 -411.6932
v  -241.4787 31.7127 -377.9951
v  -221.9659 -0.0615 -378.0175
v  -221.9659 -0.0615 -408.0156
v  -221.9659 31.6834 -408.0156
v  -221.9659 31.6834 -378.0175
v  -463.9750 31.6834 -378.0175
v  -463.7140 31.6542 -303.8539
v  -357.6839 31.6542 -303.8539
v  -342.7941 31.6834 -303.8302
v  -327.9062 31.6834 -303.8302
v  -221.8742 31.6542 -303.8539
v  -463.9750 31.6834 -408.0156
v  -463.7140 31.6542 -482.1791
v  -357.6820 31.6834 -482.1643
v  -327.9062 31.6834 -482.1643
v  -221.8742 31.6542 -482.1791
v  -463.9750 -0.0615 -378.0175
v  -463.7140 -0.1230 -303.8539
v  -357.6820 -0.0615 -303.8302
v  -327.9062 -0.0615 -303.8302
v  -221.8742 -0.1230 -303.8539
v  -463.7140 -0.1230 -482.1791
v  -463.9750 -0.0615 -408.0156
v  -357.6820 -0.0615 -482.1643
v  -221.8742 -0.1230 -482.1791
v  -327.9062 -0.0615 -482.1643
# 77 vertices

vn 0.0000 1.0000 -0.0000
vn 1.0000 0.0000 -0.0000
vn 0.0000 0.0000 -1.0000
vn 0.0000 0.0000 1.0000
vn -1.0000 0.0000 -0.0000
vn 0.0030 1.0000 -0.0000
vn -0.0012 0.0000 1.0000
vn -0.0012 0.0000 -1.0000
vn -0.0015 -1.0000 -0.0000
vn -1.0000 0.0048 0.0021
vn -1.0000 0.0048 0.0019
vn -1.0000 0.0049 0.0019
vn -0.0003 0.0006 1.0000
vn -0.0003 0.0005 1.0000
vn 0.0000 0.0005 1.0000
vn 0.0001 0.0005 1.0000
vn 0.0002 0.0004 1.0000
vn 0.0000 0.0004 1.0000
vn -0.9999 0.0104 -0.0000
vn -0.9999 0.0102 -0.0000
vn 1.0000 -0.0017 -0.0006
vn -1.0000 0.0048 -0.0019
vn -1.0000 0.0048 -0.0021
vn -1.0000 0.0049 -0.0018
vn 1.0000 -0.0036 -0.0000
vn 0.0000 -0.0002 -1.0000
vn 0.0001 -0.0002 -1.0000
vn 0.0001 -0.0003 -1.0000
vn 0.0000 -0.0003 -1.0000
vn 0.0000 -0.0006 -1.0000
vn -0.0001 -0.0002 -1.0000
vn -0.0001 -0.0003 -1.0000
vn 1.0000 -0.0017 0.0006
vn 1.0000 -0.0017 0.0007
vn -1.0000 0.0000 0.0035
vn -1.0000 0.0000 0.0036
vn -0.0001 0.0004 1.0000
vn 0.0003 0.0000 1.0000
vn 0.0002 0.0000 1.0000
vn 1.0000 0.0000 -0.0012
vn 1.0000 0.0000 -0.0009
vn -1.0000 0.0000 -0.0036
vn -1.0000 0.0000 -0.0035
vn 0.0002 0.0000 -1.0000
vn -0.0002 0.0000 -1.0000
vn 1.0000 0.0000 0.0012
vn 1.0000 0.0000 0.0009
vn -0.0004 0.0004 1.0000
# 48 vertex normals

vt 0.2120 0.0295 0.0000
vt 0.1891 0.1522 0.0000
vt 0.0228 0.1602 0.0000
vt 0.0228 0.0295 0.0000
vt 0.1891 0.2340 0.0000
vt 0.0228 0.2260 0.0000
vt 0.2120 0.3566 0.0000
vt 0.0228 0.3566 0.0000
vt 0.7313 0.3558 0.0000
vt 0.7313 0.4252 0.0000
vt 0.6007 0.4252 0.0000
vt 0.6007 0.3558 0.0000
vt 0.2435 0.6930 0.0000
vt 0.2435 0.7625 0.0000
vt 0.0543 0.7625 0.0000
vt 0.0543 0.6931 0.0000
vt 0.5032 0.6597 0.0000
vt 0.3140 0.6627 0.0000
vt 0.3129 0.5933 0.0000
vt 0.5021 0.5902 0.0000
vt 0.7566 0.6704 0.0000
vt 0.7566 0.7398 0.0000
vt 0.6260 0.7399 0.0000
vt 0.6260 0.6704 0.0000
vt 0.6007 0.4811 0.0000
vt 0.7233 0.4811 0.0000
vt 0.7154 0.5240 0.0000
vt 0.5690 0.5240 0.0000
vt 0.0543 0.8184 0.0000
vt 0.2207 0.8184 0.0000
vt 0.2100 0.8500 0.0000
vt 0.0114 0.8500 0.0000
vt 0.5012 0.5343 0.0000
vt 0.3349 0.5370 0.0000
vt 0.3451 0.5052 0.0000
vt 0.5436 0.5020 0.0000
vt 0.6260 0.7958 0.0000
vt 0.7486 0.7957 0.0000
vt 0.7407 0.8387 0.0000
vt 0.5943 0.8387 0.0000
vt 0.2771 0.0295 0.0000
vt 0.4663 0.0295 0.0000
vt 0.4663 0.1602 0.0000
vt 0.3000 0.1522 0.0000
vt 0.0597 0.6668 0.0000
vt 0.0586 0.5973 0.0000
vt 0.2478 0.5943 0.0000
vt 0.2489 0.6637 0.0000
vt 0.3316 0.8184 0.0000
vt 0.3423 0.8500 0.0000
vt 0.2240 0.5388 0.0000
vt 0.0577 0.5415 0.0000
vt 0.0143 0.5105 0.0000
vt 0.2128 0.5073 0.0000
vt 0.4979 0.6930 0.0000
vt 0.4979 0.7625 0.0000
vt 0.3087 0.7625 0.0000
vt 0.3087 0.6930 0.0000
vt 0.4979 0.8184 0.0000
vt 0.5408 0.8500 0.0000
vt 0.9277 0.3558 0.0000
vt 0.9277 0.4252 0.0000
vt 0.7971 0.4252 0.0000
vt 0.7971 0.3558 0.0000
vt 0.8051 0.4811 0.0000
vt 0.9277 0.4811 0.0000
vt 0.9594 0.5240 0.0000
vt 0.8130 0.5240 0.0000
vt 0.8304 0.7957 0.0000
vt 0.8383 0.8386 0.0000
vt 0.4663 0.3566 0.0000
vt 0.2771 0.3566 0.0000
vt 0.3000 0.2340 0.0000
vt 0.4663 0.2260 0.0000
vt 0.9531 0.6704 0.0000
vt 0.9531 0.7398 0.0000
vt 0.8224 0.7398 0.0000
vt 0.8224 0.6704 0.0000
vt 0.9531 0.7957 0.0000
vt 0.9847 0.8386 0.0000
vt 0.6938 0.2780 0.0000
vt 0.6280 0.2780 0.0000
vt 0.6280 0.2353 0.0000
vt 0.6937 0.2352 0.0000
vt 0.7632 0.2780 0.0000
vt 0.7632 0.2353 0.0000
vt 0.5585 0.2780 0.0000
vt 0.5585 0.2353 0.0000
vt 0.4928 0.2780 0.0000
vt 0.4929 0.2353 0.0000
vt 0.7314 0.5800 0.0000
vt 0.5690 0.5801 0.0000
vt 0.5408 0.9060 0.0000
vt 0.3087 0.9060 0.0000
vt 0.2761 0.9060 0.0000
vt 0.2435 0.9060 0.0000
vt 0.0114 0.9060 0.0000
vt 0.7971 0.5800 0.0000
vt 0.9847 0.8947 0.0000
vt 0.8224 0.8946 0.0000
vt 0.9594 0.5800 0.0000
vt 0.7567 0.8946 0.0000
vt 0.3106 0.4498 0.0000
vt 0.5427 0.4460 0.0000
vt 0.2455 0.4508 0.0000
vt 0.0134 0.4545 0.0000
vt 0.5943 0.8947 0.0000
vt 0.7314 0.6495 0.0000
vt 0.5690 0.6496 0.0000
vt 0.5408 0.9756 0.0000
vt 0.3087 0.9755 0.0000
vt 0.2435 0.9755 0.0000
vt 0.0114 0.9756 0.0000
vt 0.9847 0.9642 0.0000
vt 0.8224 0.9641 0.0000
vt 0.9594 0.6496 0.0000
vt 0.7971 0.6495 0.0000
vt 0.3095 0.3803 0.0000
vt 0.5416 0.3764 0.0000
vt 0.0123 0.3849 0.0000
vt 0.2443 0.3813 0.0000
vt 0.7567 0.9641 0.0000
vt 0.5944 0.9643 0.0000
# 123 texture coords

g Plane008
usemtl 01___Default
s off
f 1/1/1 2/2/1 3/3/1 4/4/1 
f 3/3/1 2/2/1 5/5/1 6/6/1 
f 6/6/1 5/5/1 7/7/1 8/8/1 
f 3/9/2 9/10/2 10/11/2 4/12/2 
f 11/13/3 12/14/3 13/15/3 14/16/3 
f 8/17/4 7/18/4 15/19/4 16/20/4 
f 17/21/5 18/22/5 19/23/5 20/24/5 
f 21/25/1 22/26/1 23/27/1 24/28/1 
f 25/29/1 26/30/1 27/31/1 28/32/1 
f 29/33/1 30/34/1 31/35/1 32/36/1 
f 33/37/1 34/38/1 35/39/1 36/40/1 
f 11/41/1 14/42/1 37/43/1 38/44/1 
f 20/45/4 19/46/4 39/47/4 40/48/4 
f 26/30/1 41/49/1 42/50/1 27/31/1 
f 43/51/1 33/52/1 36/53/1 44/54/1 
f 11/41/1 38/44/1 2/2/1 1/1/1 
f 4/55/3 10/56/3 45/57/3 1/58/3 
f 41/49/1 21/59/1 24/60/1 42/50/1 
f 30/34/1 43/51/1 44/54/1 31/35/1 
f 8/61/2 16/62/2 46/63/2 6/64/2 
f 47/65/1 29/66/1 32/67/1 48/68/1 
f 34/38/1 49/69/1 50/70/1 35/39/1 
f 20/71/1 40/72/1 51/73/1 17/74/1 
f 40/72/1 7/7/1 5/5/1 51/73/1 
f 14/75/5 13/76/5 52/77/5 37/78/5 
f 22/26/1 47/65/1 48/68/1 23/27/1 
f 49/69/1 25/79/1 28/80/1 50/70/1 
f 17/74/1 51/73/1 38/44/1 37/43/1 
f 51/73/1 5/5/1 2/2/1 38/44/1 
f 9/10/2 22/26/2 21/25/2 10/11/2 
f 26/30/3 25/29/3 13/15/3 12/14/3 
f 15/19/4 30/34/4 29/33/4 16/20/4 
f 34/38/5 33/37/5 19/23/5 18/22/5 
f 41/49/3 26/30/3 12/14/3 45/57/3 
f 33/52/4 43/51/4 39/47/4 19/46/4 
f 21/59/3 41/49/3 45/57/3 10/56/3 
f 43/51/4 30/34/4 15/19/4 39/47/4 
f 29/66/2 47/65/2 46/63/2 16/62/2 
f 49/69/5 34/38/5 18/22/5 52/77/5 
f 47/65/2 22/26/2 9/10/2 46/63/2 
f 25/79/5 49/69/5 52/77/5 13/76/5 
f 17/81/6 37/82/6 53/83/6 54/84/6 
f 18/85/7 17/81/7 54/84/7 55/86/7 
f 37/82/8 52/87/8 56/88/8 53/83/8 
f 52/87/9 18/89/9 55/90/9 56/88/9 
f 24/28/10 23/27/11 57/91/12 58/92/10 
f 24/60/4 58/93/4 59/94/4 42/50/4 
f 60/95/13 61/96/13 27/31/13 42/50/13 
f 60/95/13 42/50/13 59/94/14 
f 28/32/15 27/31/16 61/96/17 62/97/18 
f 48/68/19 63/98/20 57/91/20 23/27/19 
f 28/80/21 62/99/21 56/100/21 50/70/21 
f 48/68/22 32/67/23 64/101/23 63/98/24 
f 50/70/25 56/100/25 55/102/25 35/39/25 
f 32/36/26 31/35/27 65/103/28 64/104/29 
f 31/35/30 44/54/30 66/105/30 65/103/30 
f 44/54/31 36/53/26 67/106/29 66/105/32 
f 36/40/33 35/39/33 55/102/34 67/107/33 
f 57/91/35 68/108/35 69/109/36 58/92/36 
f 59/94/37 58/93/18 69/110/18 70/111/37 
f 61/96/38 71/112/39 72/113/38 62/97/38 
f 56/100/40 62/99/41 72/114/41 53/115/40 
f 64/101/42 73/116/42 74/117/43 63/98/43 
f 65/103/44 75/118/44 73/119/3 64/104/3 
f 67/106/3 76/120/3 77/121/45 66/105/45 
f 55/102/46 54/122/46 76/123/47 67/107/47 
f 3/9/2 6/64/2 46/63/2 9/10/2 
f 7/18/4 40/48/4 39/47/4 15/19/4 
f 65/103/3 66/105/3 77/121/3 75/118/3 
f 57/91/5 63/98/5 74/117/5 68/108/5 
f 45/57/3 12/14/3 11/13/3 1/58/3 
f 70/111/48 71/112/48 61/96/48 59/94/48 
# 71 polygons - 1 triangles

