# 3ds Max Wavefront OBJ Exporter v0.97b - (c)2007 guruware
# File Created: 22.02.2018 12:40:19

mtllib 2 door left-down.mtl

#
# object Plane007
#

v  -107.5913 0.0000 -320.2624
v  -118.0342 0.0000 -376.2925
v  -194.0207 0.0000 -379.9478
v  -194.0207 0.0000 -320.2624
v  -118.0342 0.0000 -413.6459
v  -194.0207 0.0000 -409.9907
v  -107.5913 0.0000 -469.6761
v  -194.0207 0.0000 -469.6761
v  -194.0207 31.7127 -379.9478
v  -194.0207 31.7127 -320.2624
v  -77.8194 0.0000 -320.2624
v  -77.8194 31.7127 -320.2624
v  8.6100 31.7127 -320.2624
v  8.6100 0.0000 -320.2624
v  -107.5913 31.7127 -469.6761
v  -194.0207 31.7127 -469.6761
v  8.6100 0.0000 -409.9907
v  8.6100 31.7127 -409.9907
v  8.6100 31.7127 -469.6761
v  8.6100 0.0000 -469.6761
v  -194.0207 57.2476 -320.2624
v  -194.0207 57.2476 -376.2925
v  -213.6252 57.2476 -372.6786
v  -213.6252 57.2476 -305.8066
v  8.6100 57.2476 -320.2624
v  -67.3765 57.2476 -320.2624
v  -62.4754 57.2476 -305.8066
v  28.2146 57.2476 -305.8066
v  -194.0207 57.2476 -469.6761
v  -118.0342 57.2476 -469.6761
v  -122.9353 57.2476 -484.1318
v  -213.6252 57.2476 -484.1318
v  8.6100 57.2476 -469.6761
v  8.6100 57.2476 -413.6459
v  28.2146 57.2476 -417.2599
v  28.2146 57.2476 -484.1318
v  8.6100 0.0000 -379.9478
v  -67.3765 0.0000 -376.2925
v  -77.8194 31.7127 -469.6761
v  -77.8194 0.0000 -469.6761
v  -118.0342 57.2476 -320.2624
v  -122.9353 57.2476 -305.8066
v  -67.3765 57.2476 -469.6761
v  -62.4754 57.2476 -484.1318
v  -107.5913 31.7127 -320.2624
v  -194.0207 31.7127 -409.9907
v  -194.0207 57.2476 -413.6459
v  -213.6252 57.2476 -417.2599
v  8.6100 57.2476 -376.2925
v  28.2146 57.2476 -372.6786
v  -67.3765 0.0000 -413.6459
v  8.6100 31.7127 -379.9478
v  -107.5932 -0.0615 -305.7829
v  -77.8174 -0.0615 -305.7829
v  -77.8174 31.6834 -305.7829
v  -107.5913 31.7127 -305.7592
v  -92.7053 31.6834 -305.7829
v  -213.8863 -0.0615 -409.9683
v  -213.8863 -0.0615 -379.9702
v  -213.8863 31.6834 -409.9683
v  -213.8863 31.6834 -379.9702
v  -213.6252 31.6542 -305.8066
v  -107.5952 31.6542 -305.8066
v  28.2146 31.6542 -305.8066
v  28.1229 31.6834 -379.9702
v  -213.6252 31.6542 -484.1318
v  28.1229 31.6834 -409.9683
v  -107.5932 31.6834 -484.1170
v  -77.8174 31.6834 -484.1170
v  28.2146 31.6542 -484.1318
v  -213.6252 -0.1230 -305.8066
v  28.2146 -0.1230 -305.8066
v  28.1229 -0.0615 -379.9702
v  -213.6252 -0.1230 -484.1318
v  -107.5932 -0.0615 -484.1170
v  28.2146 -0.1230 -484.1318
v  -77.8174 -0.0615 -484.1170
v  28.1229 -0.0615 -409.9683
# 78 vertices

vn 0.0000 1.0000 -0.0000
vn 1.0000 0.0000 -0.0000
vn 0.0000 0.0000 -1.0000
vn 0.0000 0.0000 1.0000
vn -1.0000 0.0000 -0.0000
vn 0.0000 1.0000 0.0042
vn -1.0000 0.0000 0.0003
vn 1.0000 -0.0000 -0.0000
vn -0.0005 -1.0000 -0.0015
vn -0.0030 1.0000 -0.0000
vn 0.0012 0.0000 1.0000
vn 0.0012 0.0000 -1.0000
vn 0.0015 -1.0000 -0.0000
vn -1.0000 0.0048 0.0021
vn -1.0000 0.0048 0.0019
vn -1.0000 0.0049 0.0019
vn -0.0003 0.0006 1.0000
vn -0.0003 0.0005 1.0000
vn 0.0000 0.0005 1.0000
vn 0.0001 0.0005 1.0000
vn 0.0002 0.0004 1.0000
vn 0.0000 0.0004 1.0000
vn -0.9999 0.0104 -0.0000
vn -0.9999 0.0102 -0.0000
vn 1.0000 -0.0017 -0.0006
vn -1.0000 0.0048 -0.0019
vn -1.0000 0.0048 -0.0021
vn -1.0000 0.0049 -0.0018
vn 1.0000 -0.0036 -0.0000
vn 0.0000 -0.0002 -1.0000
vn 0.0001 -0.0002 -1.0000
vn 0.0001 -0.0003 -1.0000
vn 0.0000 -0.0003 -1.0000
vn 0.0000 -0.0006 -1.0000
vn -0.0001 -0.0002 -1.0000
vn -0.0001 -0.0003 -1.0000
vn 1.0000 -0.0017 0.0006
vn 1.0000 -0.0017 0.0007
vn -1.0000 0.0000 0.0035
vn -1.0000 0.0000 0.0036
vn -0.0001 0.0004 1.0000
vn 0.0003 0.0000 1.0000
vn 0.0002 0.0000 1.0000
vn 1.0000 0.0000 -0.0012
vn 1.0000 0.0000 -0.0009
vn -1.0000 0.0000 -0.0036
vn -1.0000 0.0000 -0.0035
vn 0.0002 0.0000 -1.0000
vn -0.0002 0.0000 -1.0000
vn 1.0000 0.0000 0.0012
vn 1.0000 0.0000 0.0009
# 51 vertex normals

vt 0.2008 0.0127 0.0000
vt 0.1789 0.1299 0.0000
vt 0.0200 0.1375 0.0000
vt 0.0200 0.0127 0.0000
vt 0.1789 0.2080 0.0000
vt 0.0200 0.2003 0.0000
vt 0.2008 0.3252 0.0000
vt 0.0200 0.3251 0.0000
vt 0.2492 0.6397 0.0000
vt 0.2492 0.5734 0.0000
vt 0.3740 0.5734 0.0000
vt 0.3741 0.6397 0.0000
vt 0.7218 0.6268 0.0000
vt 0.7218 0.5605 0.0000
vt 0.9025 0.5605 0.0000
vt 0.9025 0.6268 0.0000
vt 0.9048 0.9410 0.0000
vt 0.7240 0.9420 0.0000
vt 0.7236 0.8757 0.0000
vt 0.9044 0.8746 0.0000
vt 0.2378 0.9459 0.0000
vt 0.2378 0.8796 0.0000
vt 0.3626 0.8796 0.0000
vt 0.3626 0.9459 0.0000
vt 0.3740 0.5200 0.0000
vt 0.2569 0.5200 0.0000
vt 0.2644 0.4790 0.0000
vt 0.4043 0.4790 0.0000
vt 0.9025 0.5071 0.0000
vt 0.7436 0.5071 0.0000
vt 0.7539 0.4769 0.0000
vt 0.9435 0.4769 0.0000
vt 0.9041 0.8212 0.0000
vt 0.7452 0.8221 0.0000
vt 0.7552 0.7918 0.0000
vt 0.9449 0.7907 0.0000
vt 0.3626 0.8262 0.0000
vt 0.2454 0.8262 0.0000
vt 0.2530 0.7852 0.0000
vt 0.3928 0.7852 0.0000
vt 0.2630 0.0127 0.0000
vt 0.4438 0.0127 0.0000
vt 0.4438 0.1375 0.0000
vt 0.2849 0.1299 0.0000
vt 0.4810 0.9434 0.0000
vt 0.4806 0.8771 0.0000
vt 0.6614 0.8760 0.0000
vt 0.6617 0.9423 0.0000
vt 0.6377 0.5071 0.0000
vt 0.6274 0.4769 0.0000
vt 0.6392 0.8228 0.0000
vt 0.4803 0.8237 0.0000
vt 0.4392 0.7937 0.0000
vt 0.6288 0.7926 0.0000
vt 0.4788 0.6268 0.0000
vt 0.4788 0.5605 0.0000
vt 0.6595 0.5605 0.0000
vt 0.6595 0.6268 0.0000
vt 0.4788 0.5071 0.0000
vt 0.4378 0.4769 0.0000
vt 0.0616 0.6397 0.0000
vt 0.0616 0.5734 0.0000
vt 0.1864 0.5734 0.0000
vt 0.1864 0.6397 0.0000
vt 0.1788 0.5200 0.0000
vt 0.0616 0.5200 0.0000
vt 0.0313 0.4790 0.0000
vt 0.1712 0.4790 0.0000
vt 0.1673 0.8262 0.0000
vt 0.1598 0.7852 0.0000
vt 0.4438 0.3252 0.0000
vt 0.2630 0.3252 0.0000
vt 0.2849 0.2080 0.0000
vt 0.4438 0.2003 0.0000
vt 0.0502 0.9460 0.0000
vt 0.0502 0.8796 0.0000
vt 0.1750 0.8796 0.0000
vt 0.1750 0.9459 0.0000
vt 0.0501 0.8262 0.0000
vt 0.0199 0.7852 0.0000
vt 0.6751 0.2413 0.0000
vt 0.7374 0.2412 0.0000
vt 0.7374 0.2715 0.0000
vt 0.6751 0.2715 0.0000
vt 0.6088 0.2411 0.0000
vt 0.6087 0.2713 0.0000
vt 0.8037 0.2410 0.0000
vt 0.8038 0.2714 0.0000
vt 0.8349 0.2713 0.0000
vt 0.8660 0.2409 0.0000
vt 0.8660 0.2712 0.0000
vt 0.6198 0.1227 0.0000
vt 0.6826 0.1226 0.0000
vt 0.6826 0.1642 0.0000
vt 0.6198 0.1642 0.0000
vt 0.5534 0.1229 0.0000
vt 0.5534 0.1644 0.0000
vt 0.7489 0.1227 0.0000
vt 0.7490 0.1643 0.0000
vt 0.8117 0.1227 0.0000
vt 0.8117 0.1642 0.0000
vt 0.2491 0.4255 0.0000
vt 0.4042 0.4254 0.0000
vt 0.4378 0.4234 0.0000
vt 0.6595 0.4234 0.0000
vt 0.6907 0.4234 0.0000
vt 0.7218 0.4234 0.0000
vt 0.9435 0.4233 0.0000
vt 0.1864 0.4255 0.0000
vt 0.0199 0.7317 0.0000
vt 0.1750 0.7318 0.0000
vt 0.0313 0.4255 0.0000
vt 0.2377 0.7318 0.0000
vt 0.7228 0.7386 0.0000
vt 0.9446 0.7372 0.0000
vt 0.6606 0.7389 0.0000
vt 0.4388 0.7402 0.0000
vt 0.3928 0.7317 0.0000
vt 0.2491 0.3591 0.0000
vt 0.4042 0.3590 0.0000
vt 0.4378 0.3569 0.0000
vt 0.6595 0.3570 0.0000
vt 0.7218 0.3570 0.0000
vt 0.9435 0.3569 0.0000
vt 0.0199 0.6653 0.0000
vt 0.1750 0.6654 0.0000
vt 0.0313 0.3590 0.0000
vt 0.1864 0.3591 0.0000
vt 0.7224 0.6722 0.0000
vt 0.9442 0.6707 0.0000
vt 0.4384 0.6737 0.0000
vt 0.6602 0.6725 0.0000
vt 0.2377 0.6654 0.0000
vt 0.3928 0.6652 0.0000
# 134 texture coords

g Plane007
usemtl 01___Default
s off
f 1/1/1 2/2/1 3/3/1 4/4/1 
f 3/3/1 2/2/1 5/5/1 6/6/1 
f 6/6/1 5/5/1 7/7/1 8/8/1 
f 3/9/2 9/10/2 10/11/2 4/12/2 
f 11/13/3 12/14/3 13/15/3 14/16/3 
f 8/17/4 7/18/4 15/19/4 16/20/4 
f 17/21/5 18/22/5 19/23/5 20/24/5 
f 21/25/1 22/26/1 23/27/1 24/28/1 
f 25/29/1 26/30/1 27/31/1 28/32/1 
f 29/33/1 30/34/1 31/35/1 32/36/1 
f 33/37/1 34/38/1 35/39/1 36/40/1 
f 11/41/1 14/42/1 37/43/1 38/44/1 
f 20/45/4 19/46/4 39/47/4 40/48/4 
f 26/30/1 41/49/1 42/50/1 27/31/1 
f 43/51/1 33/52/1 36/53/1 44/54/1 
f 11/41/1 38/44/1 2/2/1 1/1/1 
f 4/55/3 10/56/3 45/57/3 1/58/3 
f 41/49/1 21/59/1 24/60/1 42/50/1 
f 30/34/1 43/51/1 44/54/1 31/35/1 
f 8/61/2 16/62/2 46/63/2 6/64/2 
f 47/65/1 29/66/1 32/67/1 48/68/1 
f 34/38/1 49/69/1 50/70/1 35/39/1 
f 20/71/1 40/72/1 51/73/1 17/74/1 
f 40/72/1 7/7/1 5/5/1 51/73/1 
f 14/75/5 13/76/5 52/77/5 37/78/5 
f 22/26/1 47/65/1 48/68/1 23/27/1 
f 49/69/1 25/79/1 28/80/1 50/70/1 
f 17/74/1 51/73/1 38/44/1 37/43/1 
f 51/73/1 5/5/1 2/2/1 38/44/1 
f 9/10/2 22/26/2 21/25/2 10/11/2 
f 26/30/3 25/29/3 13/15/3 12/14/3 
f 15/19/4 30/34/4 29/33/4 16/20/4 
f 34/38/5 33/37/5 19/23/5 18/22/5 
f 41/49/3 26/30/3 12/14/3 45/57/3 
f 33/52/4 43/51/4 39/47/4 19/46/4 
f 21/59/3 41/49/3 45/57/3 10/56/3 
f 43/51/4 30/34/4 15/19/4 39/47/4 
f 29/66/2 47/65/2 46/63/2 16/62/2 
f 49/69/5 34/38/5 18/22/5 52/77/5 
f 47/65/2 22/26/2 9/10/2 46/63/2 
f 25/79/5 49/69/5 52/77/5 13/76/5 
f 11/81/6 1/82/6 53/83/6 54/84/6 
f 12/85/7 11/81/7 54/84/5 55/86/5 
f 1/82/8 45/87/2 56/88/2 53/83/8 
f 57/89/9 56/88/9 45/87/9 12/90/9 
f 57/89/9 12/90/9 55/91/9 
f 3/92/10 6/93/10 58/94/10 59/95/10 
f 6/96/11 46/92/11 60/95/11 58/97/11 
f 9/93/12 3/98/12 59/99/12 61/94/12 
f 46/98/13 9/100/13 61/101/13 60/99/13 
f 24/28/14 23/27/15 61/102/16 62/103/14 
f 24/60/4 62/104/4 63/105/4 42/50/4 
f 57/106/17 55/107/17 27/31/17 42/50/17 
f 57/106/17 42/50/17 63/105/18 
f 28/32/19 27/31/20 55/107/21 64/108/22 
f 48/68/23 60/109/24 61/102/24 23/27/23 
f 28/80/25 64/110/25 65/111/25 50/70/25 
f 48/68/26 32/67/27 66/112/27 60/109/28 
f 50/70/29 65/111/29 67/113/29 35/39/29 
f 32/36/30 31/35/31 68/114/32 66/115/33 
f 31/35/34 44/54/34 69/116/34 68/114/34 
f 44/54/35 36/53/30 70/117/33 69/116/36 
f 36/40/37 35/39/37 67/113/38 70/118/37 
f 61/102/39 59/119/39 71/120/40 62/103/40 
f 63/105/41 62/104/22 71/121/22 53/122/41 
f 55/107/42 54/123/43 72/124/42 64/108/42 
f 65/111/44 64/110/45 72/125/45 73/126/44 
f 66/112/46 74/127/46 58/128/47 60/109/47 
f 68/114/48 75/129/48 74/130/3 66/115/3 
f 70/117/3 76/131/3 77/132/49 69/116/49 
f 67/113/50 78/133/50 76/134/51 70/118/51 
f 18/22/5 17/21/5 37/78/5 52/77/5 
f 7/18/4 40/48/4 39/47/4 15/19/4 
f 73/126/2 78/133/2 67/113/2 65/111/2 
f 68/114/3 69/116/3 77/132/3 75/129/3 
# 73 polygons - 2 triangles

