# 3ds Max Wavefront OBJ Exporter v0.97b - (c)2007 guruware
# File Created: 22.02.2018 11:21:28

mtllib 2 doors up-down.mtl

#
# object Plane003
#

v  -233.7749 0.0000 -118.1008
v  -233.7749 0.0000 -267.5145
v  -320.2043 0.0000 -267.5145
v  -320.2043 0.0000 -118.1008
v  -320.2043 31.7127 -267.5145
v  -320.2043 31.7127 -118.1008
v  -204.0030 0.0000 -118.1008
v  -204.0030 31.7127 -118.1008
v  -117.5736 31.7127 -118.1008
v  -117.5736 0.0000 -118.1008
v  -233.7749 31.7127 -267.5145
v  -320.2043 57.2476 -118.1008
v  -320.2043 57.2476 -267.5145
v  -339.8088 57.2476 -281.9702
v  -339.8088 57.2476 -103.6450
v  -117.5736 57.2476 -118.1008
v  -193.5601 57.2476 -118.1008
v  -188.6590 57.2476 -103.6450
v  -97.9691 57.2476 -103.6450
v  -244.2178 57.2476 -267.5145
v  -249.1189 57.2476 -281.9702
v  -117.5736 57.2476 -267.5145
v  -97.9691 57.2476 -281.9702
v  -117.5736 0.0000 -267.5145
v  -117.5736 31.7127 -267.5145
v  -204.0030 31.7127 -267.5145
v  -204.0030 0.0000 -267.5145
v  -244.2178 57.2476 -118.1008
v  -249.1189 57.2476 -103.6450
v  -193.5601 57.2476 -267.5145
v  -188.6590 57.2476 -281.9702
v  -233.7749 31.7127 -118.1008
v  -204.0011 -0.0615 -281.9554
v  -233.7769 -0.0615 -281.9554
v  -233.7769 31.6834 -281.9554
v  -204.0011 31.6834 -281.9554
v  -204.0011 -0.0615 -103.6213
v  -204.0011 31.6834 -103.6213
v  -233.7749 31.7127 -103.5976
v  -233.7769 -0.0615 -103.6213
v  -218.8890 31.6834 -103.6213
v  -339.8089 31.6542 -281.9702
v  -339.8089 31.6542 -103.6450
v  -233.7788 31.6542 -103.6450
v  -97.9691 31.6542 -103.6450
v  -97.9691 31.6542 -281.9702
v  -339.8089 -0.1230 -281.9702
v  -339.8089 -0.1230 -103.6450
v  -97.9691 -0.1230 -103.6450
v  -97.9691 -0.1230 -281.9702
# 50 vertices

vn 0.0000 1.0000 -0.0000
vn 1.0000 0.0000 -0.0000
vn 0.0000 0.0000 -1.0000
vn 0.0000 0.0000 1.0000
vn -1.0000 0.0000 -0.0000
vn 0.0000 1.0000 -0.0042
vn 1.0000 0.0000 -0.0003
vn 0.0000 -1.0000 0.0021
vn -1.0000 0.0000 0.0003
vn 1.0000 -0.0000 -0.0000
vn -0.0005 -1.0000 -0.0015
vn -0.0003 0.0006 1.0000
vn -0.0003 0.0005 1.0000
vn 0.0000 0.0005 1.0000
vn 0.0001 0.0005 1.0000
vn 0.0002 0.0004 1.0000
vn 0.0000 0.0004 1.0000
vn 0.0000 -0.0002 -1.0000
vn 0.0001 -0.0002 -1.0000
vn 0.0001 -0.0003 -1.0000
vn 0.0000 -0.0003 -1.0000
vn 0.0000 -0.0006 -1.0000
vn -0.0001 -0.0002 -1.0000
vn -0.0001 -0.0003 -1.0000
vn -0.0001 0.0004 1.0000
vn 0.0003 0.0000 1.0000
vn 0.0002 0.0000 1.0000
vn 0.0002 0.0000 -1.0000
vn -0.0002 0.0000 -1.0000
vn -1.0000 0.0000 -0.0003
vn 0.0000 1.0000 0.0042
# 31 vertex normals

vt 0.3144 0.0149 0.0000
vt 0.3144 0.3301 0.0000
vt 0.1321 0.3301 0.0000
vt 0.1321 0.0149 0.0000
vt 0.4541 0.6440 0.0000
vt 0.4541 0.5771 0.0000
vt 0.7692 0.5771 0.0000
vt 0.7693 0.6440 0.0000
vt 0.3010 0.9596 0.0000
vt 0.3010 0.8947 0.0000
vt 0.4778 0.8947 0.0000
vt 0.4778 0.9596 0.0000
vt 0.5270 0.7027 0.0000
vt 0.7038 0.7027 0.0000
vt 0.7038 0.7676 0.0000
vt 0.5270 0.7676 0.0000
vt 0.7692 0.5233 0.0000
vt 0.4541 0.5233 0.0000
vt 0.4236 0.4819 0.0000
vt 0.7997 0.4819 0.0000
vt 0.4778 0.8424 0.0000
vt 0.3224 0.8425 0.0000
vt 0.3324 0.8129 0.0000
vt 0.5179 0.8129 0.0000
vt 0.5270 0.8199 0.0000
vt 0.6825 0.8199 0.0000
vt 0.6724 0.8494 0.0000
vt 0.4869 0.8494 0.0000
vt 0.1162 0.4818 0.0000
vt 0.4313 0.4818 0.0000
vt 0.4618 0.5232 0.0000
vt 0.0857 0.5232 0.0000
vt 0.9416 0.7027 0.0000
vt 0.9416 0.7676 0.0000
vt 0.7647 0.7676 0.0000
vt 0.7647 0.7027 0.0000
vt 0.2187 0.8425 0.0000
vt 0.2087 0.8129 0.0000
vt 0.7861 0.8198 0.0000
vt 0.9416 0.8198 0.0000
vt 0.9817 0.8494 0.0000
vt 0.7962 0.8494 0.0000
vt 0.0633 0.9596 0.0000
vt 0.0633 0.8947 0.0000
vt 0.2401 0.8947 0.0000
vt 0.2401 0.9596 0.0000
vt 0.0632 0.8425 0.0000
vt 0.0231 0.8129 0.0000
vt 0.3772 0.3301 0.0000
vt 0.3772 0.0150 0.0000
vt 0.5595 0.0150 0.0000
vt 0.5595 0.3301 0.0000
vt 0.4313 0.3611 0.0000
vt 0.4313 0.4280 0.0000
vt 0.1162 0.4280 0.0000
vt 0.1162 0.3611 0.0000
vt 0.8117 0.1016 0.0000
vt 0.7489 0.1016 0.0000
vt 0.7489 0.0711 0.0000
vt 0.8117 0.0712 0.0000
vt 0.8786 0.1019 0.0000
vt 0.8786 0.0714 0.0000
vt 0.6192 0.1018 0.0000
vt 0.6191 0.0714 0.0000
vt 0.6819 0.0713 0.0000
vt 0.6820 0.1018 0.0000
vt 0.6751 0.1300 0.0000
vt 0.7420 0.1302 0.0000
vt 0.7420 0.1608 0.0000
vt 0.6751 0.1606 0.0000
vt 0.8048 0.1302 0.0000
vt 0.8717 0.1300 0.0000
vt 0.8718 0.1606 0.0000
vt 0.8048 0.1608 0.0000
vt 0.9031 0.1605 0.0000
vt 0.9345 0.1299 0.0000
vt 0.9345 0.1604 0.0000
vt 0.4236 0.4280 0.0000
vt 0.7997 0.4280 0.0000
vt 0.0231 0.7605 0.0000
vt 0.2401 0.7605 0.0000
vt 0.2705 0.7606 0.0000
vt 0.3010 0.7606 0.0000
vt 0.5179 0.7605 0.0000
vt 0.7038 0.9017 0.0000
vt 0.4869 0.9018 0.0000
vt 0.7648 0.9017 0.0000
vt 0.9817 0.9018 0.0000
vt 0.4618 0.5771 0.0000
vt 0.0857 0.5771 0.0000
vt 0.4236 0.3609 0.0000
vt 0.7997 0.3609 0.0000
vt 0.0231 0.6955 0.0000
vt 0.2401 0.6956 0.0000
vt 0.3010 0.6956 0.0000
vt 0.5179 0.6955 0.0000
vt 0.4618 0.6442 0.0000
vt 0.0857 0.6442 0.0000
vt 0.7038 0.9667 0.0000
vt 0.4869 0.9668 0.0000
vt 0.9817 0.9668 0.0000
vt 0.7648 0.9667 0.0000
# 102 texture coords

g Plane003
usemtl 01___Default
s off
f 1/1/1 2/2/1 3/3/1 4/4/1 
f 3/5/2 5/6/2 6/7/2 4/8/2 
f 7/9/3 8/10/3 9/11/3 10/12/3 
f 3/13/4 2/14/4 11/15/4 5/16/4 
f 12/17/1 13/18/1 14/19/1 15/20/1 
f 16/21/1 17/22/1 18/23/1 19/24/1 
f 13/25/1 20/26/1 21/27/1 14/28/1 
f 22/29/1 16/30/1 19/31/1 23/32/1 
f 24/33/4 25/34/4 26/35/4 27/36/4 
f 17/22/1 28/37/1 29/38/1 18/23/1 
f 30/39/1 22/40/1 23/41/1 31/42/1 
f 4/43/3 6/44/3 32/45/3 1/46/3 
f 28/37/1 12/47/1 15/48/1 29/38/1 
f 20/26/1 30/39/1 31/42/1 21/27/1 
f 27/49/1 7/50/1 10/51/1 24/52/1 
f 2/2/1 1/1/1 7/50/1 27/49/1 
f 10/53/5 9/54/5 25/55/5 24/56/5 
f 13/18/2 12/17/2 6/7/2 5/6/2 
f 17/22/3 16/21/3 9/11/3 8/10/3 
f 11/15/4 20/26/4 13/25/4 5/16/4 
f 16/30/5 22/29/5 25/55/5 9/54/5 
f 28/37/3 17/22/3 8/10/3 32/45/3 
f 22/40/4 30/39/4 26/35/4 25/34/4 
f 12/47/3 28/37/3 32/45/3 6/44/3 
f 30/39/4 20/26/4 11/15/4 26/35/4 
f 2/57/6 27/58/6 33/59/6 34/60/6 
f 11/61/7 2/57/7 34/60/2 35/62/2 
f 11/63/8 35/64/8 36/65/8 26/66/8 
f 8/67/9 7/68/9 37/69/5 38/70/5 
f 1/71/10 32/72/2 39/73/2 40/74/10 
f 41/75/11 39/73/11 32/72/11 8/76/11 
f 41/75/11 8/76/11 38/77/11 
f 15/20/5 14/19/5 42/78/5 43/79/5 
f 15/48/4 43/80/4 44/81/4 29/38/4 
f 41/82/12 38/83/12 18/23/12 29/38/12 
f 41/82/12 29/38/12 44/81/13 
f 19/24/14 18/23/15 38/83/16 45/84/17 
f 14/28/18 21/27/19 35/85/20 42/86/21 
f 21/27/22 31/42/22 36/87/22 35/85/22 
f 31/42/23 23/41/18 46/88/21 36/87/24 
f 23/32/2 19/31/2 45/89/2 46/90/2 
f 42/78/5 47/91/5 48/92/5 43/79/5 
f 44/81/25 43/80/17 48/93/17 40/94/25 
f 38/83/26 37/95/27 49/96/26 45/84/26 
f 45/89/2 49/97/2 50/98/2 46/90/2 
f 35/85/28 34/99/28 47/100/3 42/86/3 
f 46/88/3 50/101/3 33/102/29 36/87/29 
f 27/58/30 26/66/30 36/65/5 33/59/5 
f 7/68/31 1/71/31 40/74/31 37/69/31 
# 47 polygons - 2 triangles

