# 3ds Max Wavefront OBJ Exporter v0.97b - (c)2007 guruware
# File Created: 22.02.2018 11:21:02

mtllib 4 doors.mtl

#
# object Plane001
#

v  262.3150 0.0000 -137.0339
v  251.8721 0.0000 -193.0640
v  175.8856 0.0000 -196.7193
v  175.8856 0.0000 -137.0339
v  251.8721 0.0000 -230.4174
v  175.8856 0.0000 -226.7621
v  262.3150 0.0000 -286.4476
v  175.8856 0.0000 -286.4476
v  175.8856 31.7127 -196.7193
v  175.8856 31.7127 -137.0339
v  292.0869 0.0000 -137.0339
v  292.0869 31.7127 -137.0339
v  378.5163 31.7127 -137.0339
v  378.5163 0.0000 -137.0339
v  262.3150 31.7127 -286.4476
v  175.8856 31.7127 -286.4476
v  378.5163 0.0000 -226.7621
v  378.5163 31.7127 -226.7621
v  378.5163 31.7127 -286.4476
v  378.5163 0.0000 -286.4476
v  175.8856 57.2476 -137.0339
v  175.8856 57.2476 -193.0640
v  156.2811 57.2476 -189.4501
v  156.2811 57.2476 -122.5781
v  378.5163 57.2476 -137.0339
v  302.5298 57.2476 -137.0339
v  307.4309 57.2476 -122.5781
v  398.1208 57.2476 -122.5781
v  175.8856 57.2476 -286.4476
v  251.8721 57.2476 -286.4476
v  246.9710 57.2476 -300.9033
v  156.2811 57.2476 -300.9033
v  378.5163 57.2476 -286.4476
v  378.5163 57.2476 -230.4174
v  398.1208 57.2476 -234.0314
v  398.1208 57.2476 -300.9033
v  378.5163 0.0000 -196.7193
v  302.5298 0.0000 -193.0640
v  292.0869 31.7127 -286.4476
v  292.0869 0.0000 -286.4476
v  251.8721 57.2476 -137.0339
v  246.9710 57.2476 -122.5781
v  302.5298 57.2476 -286.4476
v  307.4309 57.2476 -300.9033
v  262.3150 31.7127 -137.0339
v  175.8856 31.7127 -226.7621
v  175.8856 57.2476 -230.4174
v  156.2811 57.2476 -234.0314
v  378.5163 57.2476 -193.0640
v  398.1208 57.2476 -189.4501
v  302.5298 0.0000 -230.4174
v  378.5163 31.7127 -196.7193
v  292.0889 -0.0615 -300.8885
v  262.3130 -0.0615 -300.8885
v  292.0889 31.6834 -300.8885
v  262.3130 31.6834 -300.8885
v  262.3130 -0.0615 -122.5544
v  292.0889 -0.0615 -122.5544
v  292.0889 31.6834 -122.5544
v  262.3150 31.7127 -122.5307
v  277.2010 31.6834 -122.5544
v  398.0292 -0.0615 -196.7417
v  398.0292 -0.0615 -226.7398
v  398.0292 31.6834 -226.7398
v  398.0292 31.6834 -196.7417
v  156.0200 -0.0615 -226.7398
v  156.0200 -0.0615 -196.7417
v  156.0200 31.6834 -226.7398
v  156.0200 31.6834 -196.7417
v  156.2811 31.6542 -122.5781
v  262.3111 31.6542 -122.5781
v  398.1208 31.6542 -122.5781
v  156.2811 31.6542 -300.9033
v  398.1208 31.6542 -300.9033
v  156.2811 -0.1230 -122.5781
v  398.1208 -0.1230 -122.5781
v  156.2811 -0.1230 -300.9033
v  398.1208 -0.1230 -300.9033
# 78 vertices

vn 0.0000 1.0000 -0.0000
vn 1.0000 0.0000 -0.0000
vn 0.0000 0.0000 -1.0000
vn 0.0000 0.0000 1.0000
vn -1.0000 0.0000 -0.0000
vn 0.0000 1.0000 -0.0042
vn -1.0000 0.0000 -0.0003
vn 1.0000 0.0000 -0.0003
vn 0.0000 -1.0000 0.0021
vn 0.0000 1.0000 0.0042
vn -1.0000 0.0000 0.0003
vn 1.0000 -0.0000 -0.0000
vn -0.0005 -1.0000 -0.0015
vn 0.0030 1.0000 -0.0000
vn -0.0012 0.0000 1.0000
vn -0.0012 0.0000 -1.0000
vn -0.0015 -1.0000 -0.0000
vn -0.0030 1.0000 -0.0000
vn 0.0012 0.0000 1.0000
vn 0.0012 0.0000 -1.0000
vn 0.0015 -1.0000 -0.0000
vn -1.0000 0.0048 0.0021
vn -1.0000 0.0048 0.0019
vn -1.0000 0.0049 0.0019
vn -0.0003 0.0006 1.0000
vn -0.0003 0.0005 1.0000
vn 0.0000 0.0005 1.0000
vn 0.0001 0.0005 1.0000
vn 0.0002 0.0004 1.0000
vn 0.0000 0.0004 1.0000
vn -0.9999 0.0104 -0.0000
vn -0.9999 0.0102 -0.0000
vn 1.0000 -0.0017 -0.0006
vn -1.0000 0.0048 -0.0019
vn -1.0000 0.0048 -0.0021
vn -1.0000 0.0049 -0.0018
vn 1.0000 -0.0036 -0.0000
vn 0.0000 -0.0002 -1.0000
vn 0.0001 -0.0002 -1.0000
vn 0.0001 -0.0003 -1.0000
vn 0.0000 -0.0003 -1.0000
vn 0.0000 -0.0006 -1.0000
vn -0.0001 -0.0002 -1.0000
vn -0.0001 -0.0003 -1.0000
vn 1.0000 -0.0017 0.0006
vn 1.0000 -0.0017 0.0007
vn -1.0000 0.0000 0.0035
vn -1.0000 0.0000 0.0036
vn -0.0001 0.0004 1.0000
vn 0.0003 0.0000 1.0000
vn 0.0002 0.0000 1.0000
vn 1.0000 0.0000 -0.0012
vn 1.0000 0.0000 -0.0009
vn -1.0000 0.0000 -0.0036
vn -1.0000 0.0000 -0.0035
vn 0.0002 0.0000 -1.0000
vn -0.0002 0.0000 -1.0000
vn 1.0000 0.0000 0.0012
vn 1.0000 0.0000 0.0009
# 59 vertex normals

vt 0.2927 0.0216 0.0000
vt 0.2677 0.1559 0.0000
vt 0.0857 0.1646 0.0000
vt 0.0857 0.0216 0.0000
vt 0.2677 0.2453 0.0000
vt 0.0857 0.2366 0.0000
vt 0.2927 0.3796 0.0000
vt 0.0857 0.3796 0.0000
vt 0.5876 0.6788 0.0000
vt 0.5876 0.6160 0.0000
vt 0.7058 0.6160 0.0000
vt 0.7058 0.6788 0.0000
vt 0.2419 0.9679 0.0000
vt 0.2419 0.9132 0.0000
vt 0.3910 0.9132 0.0000
vt 0.3910 0.9679 0.0000
vt 0.4324 0.7451 0.0000
vt 0.5834 0.7451 0.0000
vt 0.5834 0.8005 0.0000
vt 0.4324 0.8005 0.0000
vt 0.1894 0.4130 0.0000
vt 0.1894 0.4762 0.0000
vt 0.0705 0.4762 0.0000
vt 0.0705 0.4130 0.0000
vt 0.7058 0.5655 0.0000
vt 0.5949 0.5655 0.0000
vt 0.6020 0.5267 0.0000
vt 0.7344 0.5267 0.0000
vt 0.3910 0.8691 0.0000
vt 0.2599 0.8691 0.0000
vt 0.2684 0.8441 0.0000
vt 0.4249 0.8441 0.0000
vt 0.4324 0.8451 0.0000
vt 0.5651 0.8451 0.0000
vt 0.5566 0.8704 0.0000
vt 0.3981 0.8704 0.0000
vt 0.0705 0.5271 0.0000
vt 0.1821 0.5271 0.0000
vt 0.1749 0.5661 0.0000
vt 0.0417 0.5661 0.0000
vt 0.3640 0.0216 0.0000
vt 0.5711 0.0216 0.0000
vt 0.5711 0.1646 0.0000
vt 0.3890 0.1559 0.0000
vt 0.7864 0.7451 0.0000
vt 0.7864 0.8005 0.0000
vt 0.6354 0.8005 0.0000
vt 0.6354 0.7451 0.0000
vt 0.1725 0.8691 0.0000
vt 0.1640 0.8441 0.0000
vt 0.6537 0.8451 0.0000
vt 0.7864 0.8451 0.0000
vt 0.8207 0.8704 0.0000
vt 0.6622 0.8704 0.0000
vt 0.0414 0.9679 0.0000
vt 0.0414 0.9132 0.0000
vt 0.1905 0.9132 0.0000
vt 0.1905 0.9679 0.0000
vt 0.0414 0.8691 0.0000
vt 0.0076 0.8441 0.0000
vt 0.4099 0.6788 0.0000
vt 0.4099 0.6160 0.0000
vt 0.5281 0.6160 0.0000
vt 0.5281 0.6788 0.0000
vt 0.5209 0.5655 0.0000
vt 0.4099 0.5655 0.0000
vt 0.3813 0.5267 0.0000
vt 0.5137 0.5267 0.0000
vt 0.2566 0.5271 0.0000
vt 0.2638 0.5661 0.0000
vt 0.5711 0.3796 0.0000
vt 0.3640 0.3796 0.0000
vt 0.3890 0.2453 0.0000
vt 0.5711 0.2366 0.0000
vt 0.3682 0.4130 0.0000
vt 0.3682 0.4762 0.0000
vt 0.2493 0.4762 0.0000
vt 0.2493 0.4130 0.0000
vt 0.3682 0.5271 0.0000
vt 0.3970 0.5661 0.0000
vt 0.8980 0.4150 0.0000
vt 0.8967 0.5104 0.0000
vt 0.8504 0.5098 0.0000
vt 0.8517 0.4143 0.0000
vt 0.8999 0.3133 0.0000
vt 0.8536 0.3125 0.0000
vt 0.8958 0.6121 0.0000
vt 0.8947 0.7075 0.0000
vt 0.8484 0.7070 0.0000
vt 0.8495 0.6116 0.0000
vt 0.9175 0.5740 0.0000
vt 0.9175 0.4454 0.0000
vt 0.9800 0.4453 0.0000
vt 0.9801 0.5740 0.0000
vt 0.9169 0.7111 0.0000
vt 0.9795 0.7112 0.0000
vt 0.9168 0.3083 0.0000
vt 0.9795 0.3080 0.0000
vt 0.9792 0.2437 0.0000
vt 0.9163 0.1797 0.0000
vt 0.9789 0.1794 0.0000
vt 0.7685 0.6088 0.0000
vt 0.7685 0.5122 0.0000
vt 0.8313 0.5123 0.0000
vt 0.8312 0.6088 0.0000
vt 0.7682 0.7108 0.0000
vt 0.8310 0.7109 0.0000
vt 0.7684 0.4102 0.0000
vt 0.8312 0.4102 0.0000
vt 0.7685 0.3135 0.0000
vt 0.8313 0.3137 0.0000
vt 0.5876 0.4760 0.0000
vt 0.7344 0.4760 0.0000
vt 0.0076 0.8000 0.0000
vt 0.1905 0.8000 0.0000
vt 0.2162 0.8000 0.0000
vt 0.2419 0.8000 0.0000
vt 0.4249 0.8000 0.0000
vt 0.5282 0.4760 0.0000
vt 0.3970 0.6171 0.0000
vt 0.2492 0.6170 0.0000
vt 0.3813 0.4760 0.0000
vt 0.1895 0.6170 0.0000
vt 0.5834 0.9151 0.0000
vt 0.3981 0.9151 0.0000
vt 0.6354 0.9151 0.0000
vt 0.8207 0.9151 0.0000
vt 0.0417 0.6171 0.0000
vt 0.5876 0.4132 0.0000
vt 0.7344 0.4131 0.0000
vt 0.0076 0.7452 0.0000
vt 0.1905 0.7453 0.0000
vt 0.2419 0.7453 0.0000
vt 0.4249 0.7452 0.0000
vt 0.3970 0.6804 0.0000
vt 0.2492 0.6803 0.0000
vt 0.3813 0.4131 0.0000
vt 0.5282 0.4132 0.0000
vt 0.5834 0.9705 0.0000
vt 0.3981 0.9707 0.0000
vt 0.8207 0.9707 0.0000
vt 0.6354 0.9705 0.0000
vt 0.1895 0.6803 0.0000
vt 0.0417 0.6804 0.0000
# 144 texture coords

g Plane001
usemtl 01___Default
s off
f 1/1/1 2/2/1 3/3/1 4/4/1 
f 3/3/1 2/2/1 5/5/1 6/6/1 
f 6/6/1 5/5/1 7/7/1 8/8/1 
f 3/9/2 9/10/2 10/11/2 4/12/2 
f 11/13/3 12/14/3 13/15/3 14/16/3 
f 8/17/4 7/18/4 15/19/4 16/20/4 
f 17/21/5 18/22/5 19/23/5 20/24/5 
f 21/25/1 22/26/1 23/27/1 24/28/1 
f 25/29/1 26/30/1 27/31/1 28/32/1 
f 29/33/1 30/34/1 31/35/1 32/36/1 
f 33/37/1 34/38/1 35/39/1 36/40/1 
f 11/41/1 14/42/1 37/43/1 38/44/1 
f 20/45/4 19/46/4 39/47/4 40/48/4 
f 26/30/1 41/49/1 42/50/1 27/31/1 
f 43/51/1 33/52/1 36/53/1 44/54/1 
f 11/41/1 38/44/1 2/2/1 1/1/1 
f 4/55/3 10/56/3 45/57/3 1/58/3 
f 41/49/1 21/59/1 24/60/1 42/50/1 
f 30/34/1 43/51/1 44/54/1 31/35/1 
f 8/61/2 16/62/2 46/63/2 6/64/2 
f 47/65/1 29/66/1 32/67/1 48/68/1 
f 34/38/1 49/69/1 50/70/1 35/39/1 
f 20/71/1 40/72/1 51/73/1 17/74/1 
f 40/72/1 7/7/1 5/5/1 51/73/1 
f 14/75/5 13/76/5 52/77/5 37/78/5 
f 22/26/1 47/65/1 48/68/1 23/27/1 
f 49/69/1 25/79/1 28/80/1 50/70/1 
f 17/74/1 51/73/1 38/44/1 37/43/1 
f 51/73/1 5/5/1 2/2/1 38/44/1 
f 9/10/2 22/26/2 21/25/2 10/11/2 
f 26/30/3 25/29/3 13/15/3 12/14/3 
f 15/19/4 30/34/4 29/33/4 16/20/4 
f 34/38/5 33/37/5 19/23/5 18/22/5 
f 41/49/3 26/30/3 12/14/3 45/57/3 
f 33/52/4 43/51/4 39/47/4 19/46/4 
f 21/59/3 41/49/3 45/57/3 10/56/3 
f 43/51/4 30/34/4 15/19/4 39/47/4 
f 29/66/2 47/65/2 46/63/2 16/62/2 
f 49/69/5 34/38/5 18/22/5 52/77/5 
f 47/65/2 22/26/2 9/10/2 46/63/2 
f 25/79/5 49/69/5 52/77/5 13/76/5 
f 7/81/6 40/82/6 53/83/6 54/84/6 
f 40/85/7 39/81/7 55/84/5 53/86/5 
f 15/87/8 7/88/8 54/89/2 56/90/2 
f 15/87/9 56/90/9 55/83/9 39/82/9 
f 11/91/10 1/92/10 57/93/10 58/94/10 
f 12/95/11 11/91/11 58/94/5 59/96/5 
f 1/92/12 45/97/2 60/98/2 57/93/12 
f 61/99/13 60/98/13 45/97/13 12/100/13 
f 61/99/13 12/100/13 59/101/13 
f 17/102/14 37/103/14 62/104/14 63/105/14 
f 18/106/15 17/102/15 63/105/15 64/107/15 
f 37/103/16 52/108/16 65/109/16 62/104/16 
f 52/108/17 18/110/17 64/111/17 65/109/17 
f 3/102/18 6/103/18 66/104/18 67/105/18 
f 6/106/19 46/102/19 68/105/19 66/107/19 
f 9/103/20 3/108/20 67/109/20 69/104/20 
f 46/108/21 9/110/21 69/111/21 68/109/21 
f 24/28/22 23/27/23 69/112/24 70/113/22 
f 24/60/4 70/114/4 71/115/4 42/50/4 
f 61/116/25 59/117/25 27/31/25 42/50/25 
f 61/116/25 42/50/25 71/115/26 
f 28/32/27 27/31/28 59/117/29 72/118/30 
f 48/68/31 68/119/32 69/112/32 23/27/31 
f 28/80/33 72/120/33 65/121/33 50/70/33 
f 48/68/34 32/67/35 73/122/35 68/119/36 
f 50/70/37 65/121/37 64/123/37 35/39/37 
f 32/36/38 31/35/39 56/124/40 73/125/41 
f 31/35/42 44/54/42 55/126/42 56/124/42 
f 44/54/43 36/53/38 74/127/41 55/126/44 
f 36/40/45 35/39/45 64/123/46 74/128/45 
f 69/112/47 67/129/47 75/130/48 70/113/48 
f 71/115/49 70/114/30 75/131/30 57/132/49 
f 59/117/50 58/133/51 76/134/50 72/118/50 
f 65/121/52 72/120/53 76/135/53 62/136/52 
f 73/122/54 77/137/54 66/138/55 68/119/55 
f 56/124/56 54/139/56 77/140/3 73/125/3 
f 74/127/3 78/141/3 53/142/57 55/126/57 
f 64/123/58 63/143/58 78/144/59 74/128/59 
# 77 polygons - 2 triangles

